<?xml version="1.0" encoding="UTF-8" standalone="no"?><!DOCTYPE svg PUBLIC "-//W3C//DTD SVG 1.1//EN" "http://www.w3.org/Graphics/SVG/1.1/DTD/svg11.dtd"><svg width="100%" height="100%" viewBox="0 0 430 180" version="1.1" xmlns="http://www.w3.org/2000/svg" xmlns:xlink="http://www.w3.org/1999/xlink" xml:space="preserve" xmlns:serif="http://www.serif.com/" style="fill-rule:evenodd;clip-rule:evenodd;stroke-linecap:round;stroke-linejoin:round;"><path d="M443,48.188c0,10.01 -8.045,18.124 -17.969,18.124c-9.924,0.001 -17.969,-8.114 -17.969,-18.124" style="fill:none;fill-rule:nonzero;stroke:#ffb017;stroke-width:13px;"/><path d="M352.753,118.643c-6.67,24.942 7.76,50.486 32.23,57.056c24.47,6.567 49.718,-8.327 56.389,-33.269c6.67,-24.942 -7.76,-50.485 -32.23,-57.055" style="fill:none;fill-rule:nonzero;stroke:#44ab96;stroke-width:13px;"/><path d="M399.871,7.875c0,10.528 8.398,19.063 18.754,19.063c10.356,-0 18.75,-8.535 18.75,-19.063c0,-10.528 -8.394,-19.063 -18.75,-19.063l-62.813,0" style="fill:none;fill-rule:nonzero;stroke:#44ab96;stroke-width:13px;"/><path d="M194.504,186.062c0,-10.527 -8.398,-19.062 -18.754,-19.062c-10.356,0 -18.75,8.535 -18.75,19.062c0,10.528 8.394,19.063 18.75,19.063l62.812,0" style="fill:none;fill-rule:nonzero;stroke:#44ab96;stroke-width:13px;"/><path d="M228.912,159.125c0,-10.01 8.051,-18.125 17.982,-18.125c9.931,0 17.981,8.115 17.981,18.125c0,10.01 -8.05,18.125 -17.981,18.125l-28.582,0" style="fill:none;fill-rule:nonzero;stroke:#ffb017;stroke-width:13px;"/><path d="M395.969,113.138c9.924,0 17.969,7.987 17.969,17.837c0,9.85 -8.045,17.837 -17.969,17.837c-9.924,0 -17.969,-7.987 -17.969,-17.837l0,-116.225" style="fill:none;fill-rule:nonzero;stroke:#e53855;stroke-width:13px;"/><path d="M261.438,124.75c0,-18.294 14.639,-33.125 32.698,-33.125l57.614,0" style="fill:none;fill-rule:nonzero;stroke:#44ab96;stroke-width:13px;"/><path d="M355.812,15.375l0,16.798c0,16.956 -13.75,30.702 -30.714,30.702l-23.973,0" style="fill:none;fill-rule:nonzero;stroke:#4484ab;stroke-width:13px;"/><path d="M235.031,99.125l0,19.375" style="fill:none;fill-rule:nonzero;stroke:#ffb017;stroke-width:13px;"/><path d="M241.125,70.75c-3.59,0 -6.5,2.91 -6.5,6.5c0,3.59 2.91,6.5 6.5,6.5l0,-13Zm46.175,-24.769c0,-3.59 -2.91,-6.5 -6.5,-6.5c-3.59,-0 -6.5,2.91 -6.5,6.5l13,-0Zm-46.175,37.769l8.368,0l0,-13l-8.368,0l0,13Zm8.368,0c20.873,0 37.807,-16.902 37.807,-37.769l-13,-0c0,13.672 -11.099,24.769 -24.807,24.769l0,13Z" style="fill:#e53855;fill-rule:nonzero;"/><path d="M283.312,137.865c0,-12.592 10.214,-22.803 22.813,-22.803c12.598,-0 22.813,10.211 22.813,22.803l0,16.583c0,12.592 -10.215,22.802 -22.813,22.802c-12.599,0 -22.813,-10.21 -22.813,-22.802l0,-16.583Z" style="fill:none;stroke:#4484ab;stroke-width:13px;"/></svg>